<?xml version="1.0" encoding="utf-8"?>
<!-- Generator: Adobe Illustrator 23.0.3, SVG Export Plug-In . SVG Version: 6.00 Build 0)  -->
<svg version="1.0" id="Layer_1" xmlns="http://www.w3.org/2000/svg" xmlns:xlink="http://www.w3.org/1999/xlink" x="0px" y="0px"
	 viewBox="0 0 382.7 133.1" style="enable-background:new 0 0 382.7 133.1;" xml:space="preserve">
<style type="text/css">
	.st0{fill:#67755A;}
	.st1{fill-rule:evenodd;clip-rule:evenodd;fill:#A6CE39;}
	.st2{fill-rule:evenodd;clip-rule:evenodd;fill:#B9D393;}
	.st3{fill-rule:evenodd;clip-rule:evenodd;fill:#A7C1C0;}
</style>
<g>
	<path class="st0" d="M75.7,128.6h-1.2c0-0.1-1-1.5-2.9-4.2c-2-2.8-3.2-4.6-3.4-5.4H68c0.1,1.4,0.2,2.6,0.2,3.6c0,2,0,4,0.1,6h-1.5
		c0.1-1.9,0.2-3.9,0.2-6c0-2.1-0.1-3.9-0.2-5.4h1.7c0,0.2,0.9,1.5,2.7,4c1.9,2.6,2.9,4.4,3.2,5.2h0.1c-0.1-1.4-0.1-2.6-0.1-3.6
		c0-2.2,0-4-0.1-5.5h1.5c-0.1,1.6-0.1,3.4-0.1,5.4C75.5,124.7,75.6,126.7,75.7,128.6L75.7,128.6z"/>
	<path class="st0" d="M86.8,128.6l-1.4,0.1c-0.1-0.3-0.1-0.6-0.1-0.8h-0.1c-0.7,0.7-1.7,1-2.9,1c-0.7,0-1.3-0.2-1.7-0.6
		c-0.5-0.4-0.7-1-0.7-1.7c0-0.9,0.4-1.6,1.1-2.2c0.8-0.5,2.2-0.8,4.2-0.9c0-0.1,0-0.3,0-0.5c0-0.7-0.2-1.2-0.6-1.4
		c-0.4-0.2-1-0.4-1.7-0.4c-0.9,0-1.8,0.1-2.7,0.3l0.1-1.2c0.9-0.3,1.9-0.4,3-0.4c1,0,1.9,0.2,2.4,0.6c0.6,0.4,0.9,1.2,0.9,2.2
		c0,0.3,0,0.8,0,1.5c0,0.7,0,1.2,0,1.4C86.5,126.8,86.6,127.7,86.8,128.6L86.8,128.6z M85.2,126.9c0-0.9,0-1.7,0-2.4
		c-1.1,0-1.9,0.1-2.5,0.2c-1,0.3-1.4,0.9-1.4,1.7c0,0.8,0.6,1.2,1.7,1.2C83.9,127.6,84.6,127.3,85.2,126.9L85.2,126.9z"/>
	<path class="st0" d="M95.5,127.4l-0.1,1.1c-0.5,0.2-0.9,0.3-1.3,0.3c-1.1,0-1.8-0.3-2.2-0.8c-0.4-0.5-0.6-1.5-0.6-2.9
		c0-0.9,0-2.1,0-3.5c-0.3,0-0.8,0-1.4,0.1l0.1-1.3c0.6,0,1.1,0.1,1.5,0.1c0-0.4,0-1.2,0.1-2.5l1.4-0.1c-0.1,1.2-0.2,2.1-0.2,2.6
		c0.6,0,1.4,0,2.5-0.1l-0.1,1.3c-1.1,0-1.9-0.1-2.5-0.1c0,0.9,0,1.9,0,3c0,1.2,0.1,2,0.4,2.4c0.3,0.4,0.7,0.6,1.4,0.6
		C94.7,127.5,95,127.5,95.5,127.4L95.5,127.4z"/>
	<path class="st0" d="M100.4,128.6h-1.6c0.1-1.2,0.1-2.5,0.1-4c0-1.7-0.1-3.1-0.3-4.3l1.8-0.2c-0.1,1.2-0.1,2.7-0.1,4.5
		C100.3,126,100.3,127.3,100.4,128.6L100.4,128.6z M100.8,117.6c0,0.3-0.1,0.6-0.3,0.8c-0.2,0.2-0.5,0.3-0.8,0.3
		c-0.3,0-0.5-0.1-0.7-0.3c-0.2-0.2-0.3-0.4-0.3-0.7c0-0.3,0.1-0.5,0.3-0.8c0.2-0.2,0.5-0.3,0.8-0.3c0.3,0,0.5,0.1,0.7,0.3
		C100.7,117.1,100.8,117.3,100.8,117.6L100.8,117.6z"/>
	<path class="st0" d="M111.5,120.2c0,0.3-0.6,1.7-1.8,4.2c-1.2,2.5-1.8,3.9-1.8,4.2h-1.2c0-0.4-0.5-1.8-1.6-4.3
		c-1-2.5-1.6-3.8-1.6-4h1.7c0,0.3,0.4,1.4,1.1,3.3c0.8,1.9,1.1,3.1,1.1,3.3h0.1c0-0.3,0.4-1.3,1.1-3.2c0.7-1.9,1.1-3,1.1-3.5H111.5
		L111.5,120.2z"/>
	<path class="st0" d="M121.9,123.4c0,0.2,0,0.6,0,1l-6,0.1c0.1,0.9,0.4,1.6,1,2.2c0.6,0.6,1.4,0.9,2.4,0.9c0.9,0,1.7-0.1,2.5-0.3
		l-0.1,1.2c-0.6,0.2-1.4,0.3-2.5,0.3c-1.5,0-2.7-0.4-3.5-1.2c-0.8-0.8-1.2-1.8-1.2-3c0-1.3,0.4-2.4,1.1-3.3c0.7-0.9,1.7-1.4,2.9-1.4
		c1.1,0,2,0.3,2.6,1C121.6,121.5,121.9,122.4,121.9,123.4L121.9,123.4z M120.5,123.4c0-1.6-0.7-2.5-2.1-2.5c-1.4,0-2.2,0.9-2.5,2.6
		L120.5,123.4L120.5,123.4z"/>
	<path class="st0" d="M137.3,117.1l0,1.2c-1.2-0.1-2.4-0.1-3.6-0.1c0,1.1,0,2.6,0,4.3c0,1.9,0,3.9,0.1,6h-1.6c0.1-2,0.1-4,0.1-6
		c0-1.7,0-3.1-0.1-4.3c-0.9,0-2.1,0-3.7,0.1l0-1.3H137.3L137.3,117.1z"/>
	<path class="st0" d="M142,128.6h-1.6c0.1-1.2,0.1-2.5,0.1-4c0-1.7-0.1-3.1-0.3-4.3l1.8-0.2c-0.1,1.2-0.1,2.7-0.1,4.5
		C141.8,126,141.9,127.3,142,128.6L142,128.6z M142.3,117.6c0,0.3-0.1,0.6-0.3,0.8c-0.2,0.2-0.5,0.3-0.8,0.3c-0.3,0-0.5-0.1-0.7-0.3
		c-0.2-0.2-0.3-0.4-0.3-0.7c0-0.3,0.1-0.5,0.3-0.8c0.2-0.2,0.5-0.3,0.8-0.3c0.3,0,0.5,0.1,0.7,0.3
		C142.3,117.1,142.3,117.3,142.3,117.6L142.3,117.6z"/>
	<path class="st0" d="M150.8,127.4l-0.1,1.1c-0.5,0.2-0.9,0.3-1.3,0.3c-1.1,0-1.8-0.3-2.2-0.8c-0.4-0.5-0.6-1.5-0.6-2.9
		c0-0.9,0-2.1,0-3.5c-0.3,0-0.8,0-1.4,0.1l0.1-1.3c0.6,0,1.1,0.1,1.5,0.1c0-0.4,0-1.2,0.1-2.5l1.4-0.1c-0.1,1.2-0.2,2.1-0.2,2.6
		c0.6,0,1.4,0,2.5-0.1l-0.1,1.3c-1.1,0-1.9-0.1-2.5-0.1c0,0.9,0,1.9,0,3c0,1.2,0.1,2,0.4,2.4c0.3,0.4,0.7,0.6,1.4,0.6
		C150,127.5,150.3,127.5,150.8,127.4L150.8,127.4z"/>
	<path class="st0" d="M155.8,128.6h-1.7c0.1-1.9,0.2-4.1,0.2-6.6c0-2.4-0.1-4.3-0.3-5.8l1.8-0.1c-0.1,1.6-0.2,3.6-0.2,5.9
		C155.6,124.4,155.7,126.6,155.8,128.6L155.8,128.6z"/>
	<path class="st0" d="M167.1,123.4c0,0.2,0,0.6,0,1l-6,0.1c0.1,0.9,0.4,1.6,1,2.2c0.6,0.6,1.4,0.9,2.4,0.9c0.9,0,1.7-0.1,2.5-0.3
		l-0.1,1.2c-0.6,0.2-1.4,0.3-2.5,0.3c-1.5,0-2.7-0.4-3.5-1.2c-0.8-0.8-1.2-1.8-1.2-3c0-1.3,0.4-2.4,1.1-3.3c0.7-0.9,1.7-1.4,2.9-1.4
		c1.1,0,2,0.3,2.6,1C166.8,121.5,167.1,122.4,167.1,123.4L167.1,123.4z M165.6,123.4c0-1.6-0.7-2.5-2.1-2.5c-1.4,0-2.2,0.9-2.5,2.6
		L165.6,123.4L165.6,123.4z"/>
	<path class="st0" d="M184.6,128.6h-1.9c0-0.4-0.4-1.6-1.1-3.7h-5.1c-0.7,2-1.1,3.3-1.1,3.7h-1.8c0-0.2,0.8-2.1,2.3-5.6
		c1.5-3.5,2.3-5.5,2.3-5.8h2c0,0.3,0.7,2.3,2.2,5.7C183.8,126.3,184.6,128.2,184.6,128.6L184.6,128.6z M181.2,123.7
		c-1.4-3.4-2.1-5.3-2.1-5.5H179c0,0.2-0.7,2-2.1,5.5H181.2L181.2,123.7z"/>
	<path class="st0" d="M195.5,124c0,1.3-0.4,2.4-1.1,3.3c-0.7,0.9-1.7,1.4-3,1.4c-1.1,0-1.8-0.2-2.2-0.6h-0.1l-0.2,0.3h-1.3
		c0.1-2,0.1-4.2,0.1-6.6c0-2.1-0.1-4.1-0.3-5.8l1.7-0.1c-0.1,1-0.1,2.6-0.1,4.8h0.1c0.6-0.7,1.5-1,2.7-1c1.1,0,2,0.4,2.6,1.2
		C195.1,121.9,195.5,122.9,195.5,124L195.5,124z M193.9,124.3c0-0.9-0.2-1.6-0.7-2.2c-0.5-0.6-1.1-0.9-1.9-0.9c-1.1,0-1.8,0.3-2.3,1
		c0,2.1,0,3.8,0.1,5.1c0.5,0.4,1.1,0.6,1.9,0.6c1,0,1.7-0.3,2.2-1C193.7,126,193.9,125.2,193.9,124.3L193.9,124.3z"/>
	<path class="st0" d="M207.2,124.1c0,1.5-0.4,2.7-1.3,3.5c-0.9,0.8-1.9,1.3-3,1.3c-1.1,0-2-0.4-2.8-1.1c-0.8-0.7-1.2-1.8-1.2-3.1
		c0-1.5,0.4-2.7,1.3-3.5c0.9-0.9,1.9-1.3,3-1.3c1.1,0,2,0.4,2.8,1.1C206.8,121.7,207.2,122.8,207.2,124.1L207.2,124.1z M205.7,124.4
		c0-0.9-0.2-1.7-0.7-2.4c-0.5-0.7-1.1-1.1-2-1.1c-0.8,0-1.5,0.3-1.9,1c-0.5,0.7-0.7,1.5-0.7,2.3c0,0.9,0.2,1.7,0.7,2.4
		c0.5,0.7,1.1,1.1,2,1.1c0.8,0,1.5-0.3,1.9-1C205.4,126.1,205.7,125.3,205.7,124.4L205.7,124.4z"/>
	<path class="st0" d="M216.2,120.2l-0.4,1.4c-0.5-0.2-0.9-0.3-1.3-0.3c-1.1,0-1.8,0.5-2.1,1.6c0,2.7,0,4.6,0.1,5.7h-1.6
		c0.1-1.9,0.1-3.3,0.1-4.3c0-1.4-0.1-2.7-0.4-4l1.5-0.2c0.1,0.6,0.2,1.1,0.2,1.3h0.1c0.6-0.9,1.4-1.4,2.2-1.4
		C215.1,119.9,215.6,120,216.2,120.2L216.2,120.2z"/>
	<path class="st0" d="M220.5,128.6H219c0.1-1.2,0.1-2.5,0.1-4c0-1.7-0.1-3.1-0.3-4.3l1.8-0.2c-0.1,1.2-0.1,2.7-0.1,4.5
		C220.4,126,220.5,127.3,220.5,128.6L220.5,128.6z M220.9,117.6c0,0.3-0.1,0.6-0.3,0.8c-0.2,0.2-0.5,0.3-0.8,0.3
		c-0.3,0-0.5-0.1-0.7-0.3c-0.2-0.2-0.3-0.4-0.3-0.7c0-0.3,0.1-0.5,0.3-0.8c0.2-0.2,0.5-0.3,0.8-0.3c0.3,0,0.5,0.1,0.7,0.3
		C220.8,117.1,220.9,117.3,220.9,117.6L220.9,117.6z"/>
	<path class="st0" d="M232.8,119.1l-0.1,1.2c-1.1,0-1.7,0.2-1.8,0.5v0.1c0.4,0.5,0.6,1,0.6,1.6c0,0.9-0.3,1.7-0.9,2.3
		c-0.6,0.6-1.5,0.9-2.8,0.9c-0.6,0-1-0.1-1.3-0.2c-0.3,0.2-0.4,0.5-0.4,0.8c0,0.4,0.2,0.6,0.5,0.7c0.4,0.2,1.3,0.2,2.7,0.2
		c2.2,0,3.3,0.7,3.3,2.2c0,1.1-0.4,1.9-1.3,2.6c-0.9,0.7-2,1-3.4,1c-1.4,0-2.4-0.3-3-0.8c-0.6-0.5-0.9-1.1-0.9-1.8
		c0-0.7,0.1-1.2,0.4-1.6c0.3-0.4,0.7-0.6,1.1-0.7v-0.1c-0.5-0.2-0.7-0.7-0.7-1.3c0-0.6,0.3-1.1,0.9-1.5v-0.1
		c-0.3-0.2-0.6-0.4-0.9-0.8c-0.3-0.4-0.4-0.8-0.4-1.4c0-0.9,0.3-1.7,0.9-2.3c0.6-0.6,1.5-0.9,2.7-0.9c1,0,1.7,0.2,2.2,0.5h0.1
		c0.2-1,0.7-1.5,1.5-1.5C232.2,119,232.6,119,232.8,119.1L232.8,119.1z M231.2,130c0-0.5-0.2-0.9-0.6-1.2c-0.4-0.2-1.2-0.3-2.3-0.3
		c-0.8,0-1.4,0-2.1-0.1c-0.7,0.3-1.1,0.9-1.1,1.5c0,1.4,0.9,2.1,2.8,2.1c1,0,1.8-0.2,2.3-0.6C230.9,131.2,231.2,130.7,231.2,130
		L231.2,130z M230,122.9c0-0.6-0.2-1.1-0.6-1.5c-0.4-0.3-0.9-0.5-1.6-0.5c-0.6,0-1.1,0.2-1.5,0.5c-0.4,0.3-0.6,0.8-0.6,1.4
		c0,0.6,0.2,1.1,0.6,1.5c0.4,0.3,0.9,0.5,1.6,0.5c0.6,0,1.1-0.2,1.5-0.5C229.8,123.9,230,123.5,230,122.9L230,122.9z"/>
	<path class="st0" d="M237.5,128.6h-1.6c0.1-1.2,0.1-2.5,0.1-4c0-1.7-0.1-3.1-0.3-4.3l1.8-0.2c-0.1,1.2-0.1,2.7-0.1,4.5
		C237.4,126,237.4,127.3,237.5,128.6L237.5,128.6z M237.9,117.6c0,0.3-0.1,0.6-0.3,0.8c-0.2,0.2-0.5,0.3-0.8,0.3
		c-0.3,0-0.5-0.1-0.7-0.3c-0.2-0.2-0.3-0.4-0.3-0.7c0-0.3,0.1-0.5,0.3-0.8c0.2-0.2,0.5-0.3,0.8-0.3c0.3,0,0.5,0.1,0.7,0.3
		C237.8,117.1,237.9,117.3,237.9,117.6L237.9,117.6z"/>
	<path class="st0" d="M249,128.6h-1.6c0.1-1.5,0.2-3.2,0.2-5c0-0.9-0.2-1.5-0.5-1.8c-0.4-0.3-0.9-0.5-1.6-0.5
		c-0.8,0-1.6,0.3-2.3,0.9c0,2,0,4.2,0,6.5h-1.6c0.1-2,0.1-3.4,0.1-4.3c0-1.4-0.1-2.7-0.4-4l1.5-0.2l0.2,1.1h0.1
		c0.9-0.8,1.8-1.2,2.8-1.2c1,0,1.7,0.2,2.3,0.6c0.5,0.4,0.8,1.2,0.8,2.3c0,0.1,0,0.3,0,0.7c0,0.3,0,0.5,0,0.7
		C248.9,125.2,248.9,126.6,249,128.6L249,128.6z"/>
	<path class="st0" d="M259.6,128.6l-1.4,0.1c-0.1-0.3-0.1-0.6-0.1-0.8H258c-0.7,0.7-1.7,1-2.9,1c-0.7,0-1.3-0.2-1.7-0.6
		c-0.5-0.4-0.7-1-0.7-1.7c0-0.9,0.4-1.6,1.1-2.2c0.8-0.5,2.2-0.8,4.2-0.9c0-0.1,0-0.3,0-0.5c0-0.7-0.2-1.2-0.6-1.4
		c-0.4-0.2-1-0.4-1.7-0.4c-0.9,0-1.8,0.1-2.7,0.3l0.1-1.2c0.9-0.3,1.9-0.4,3-0.4c1,0,1.9,0.2,2.4,0.6c0.6,0.4,0.9,1.2,0.9,2.2
		c0,0.3,0,0.8,0,1.5c0,0.7,0,1.2,0,1.4C259.3,126.8,259.4,127.7,259.6,128.6L259.6,128.6z M258,126.9c0-0.9,0-1.7,0-2.4
		c-1.1,0-1.9,0.1-2.5,0.2c-1,0.3-1.4,0.9-1.4,1.7c0,0.8,0.6,1.2,1.7,1.2C256.7,127.6,257.4,127.3,258,126.9L258,126.9z"/>
	<path class="st0" d="M265.2,128.6h-1.7c0.1-1.9,0.2-4.1,0.2-6.6c0-2.4-0.1-4.3-0.3-5.8l1.8-0.1c-0.1,1.6-0.2,3.6-0.2,5.9
		C265,124.4,265,126.6,265.2,128.6L265.2,128.6z"/>
	<path class="st0" d="M281.4,127.2l-0.1,1.3c-0.7,0.2-1.5,0.3-2.4,0.3c-2,0-3.5-0.6-4.5-1.7c-1-1.1-1.5-2.5-1.5-4
		c0-1.7,0.6-3.1,1.7-4.3c1.1-1.2,2.7-1.8,4.6-1.8c0.5,0,1.1,0.1,1.7,0.2l-0.2,1.4c-0.7-0.2-1.3-0.3-1.8-0.3c-1.4,0-2.5,0.4-3.2,1.3
		c-0.7,0.9-1.1,2-1.1,3.2c0,1.3,0.4,2.4,1.3,3.3c0.8,0.9,2,1.4,3.5,1.4C279.8,127.5,280.5,127.4,281.4,127.2L281.4,127.2z"/>
	<path class="st0" d="M292.7,124.1c0,1.5-0.4,2.7-1.3,3.5c-0.9,0.8-1.9,1.3-3,1.3c-1.1,0-2-0.4-2.8-1.1c-0.8-0.7-1.2-1.8-1.2-3.1
		c0-1.5,0.4-2.7,1.3-3.5c0.9-0.9,1.9-1.3,3-1.3c1.1,0,2,0.4,2.8,1.1C292.4,121.7,292.7,122.8,292.7,124.1L292.7,124.1z M291.2,124.4
		c0-0.9-0.2-1.7-0.7-2.4c-0.5-0.7-1.1-1.1-2-1.1c-0.8,0-1.5,0.3-1.9,1c-0.5,0.7-0.7,1.5-0.7,2.3c0,0.9,0.2,1.7,0.7,2.4
		c0.5,0.7,1.1,1.1,2,1.1c0.8,0,1.5-0.3,1.9-1C291,126.1,291.2,125.3,291.2,124.4L291.2,124.4z"/>
	<path class="st0" d="M301.8,120.2l-0.4,1.4c-0.5-0.2-0.9-0.3-1.3-0.3c-1.1,0-1.8,0.5-2.1,1.6c0,2.7,0,4.6,0.1,5.7h-1.6
		c0.1-1.9,0.1-3.3,0.1-4.3c0-1.4-0.1-2.7-0.4-4l1.5-0.2c0.1,0.6,0.2,1.1,0.2,1.3h0.1c0.6-0.9,1.4-1.4,2.2-1.4
		C300.6,119.9,301.1,120,301.8,120.2L301.8,120.2z"/>
	<path class="st0" d="M312.5,124c0,1.3-0.4,2.4-1.1,3.3c-0.7,1-1.7,1.4-3,1.4c-1.1,0-1.8-0.2-2.1-0.6h-0.1c0,1.6,0,3.1,0.1,4.4h-1.7
		c0.1-1.6,0.2-3.5,0.2-5.8c0-2.8-0.1-5-0.4-6.6l1.5-0.2l0.1,0.9h0.1c0.6-0.7,1.5-1,2.8-1c1.1,0,2,0.4,2.7,1.2
		C312.2,121.9,312.5,122.9,312.5,124L312.5,124z M310.9,124.3c0-0.9-0.2-1.6-0.7-2.2c-0.5-0.6-1.1-0.9-1.9-0.9c-1.1,0-1.8,0.3-2.3,1
		c0.1,2,0.1,3.7,0.1,5.1c0.5,0.4,1.1,0.6,1.9,0.6c1,0,1.7-0.3,2.2-1C310.7,126,310.9,125.2,310.9,124.3L310.9,124.3z"/>
	<path class="st0" d="M324.2,124.1c0,1.5-0.4,2.7-1.3,3.5c-0.9,0.8-1.9,1.3-3,1.3c-1.1,0-2-0.4-2.8-1.1c-0.8-0.7-1.2-1.8-1.2-3.1
		c0-1.5,0.4-2.7,1.3-3.5c0.9-0.9,1.9-1.3,3-1.3c1.1,0,2,0.4,2.8,1.1C323.8,121.7,324.2,122.8,324.2,124.1L324.2,124.1z M322.7,124.4
		c0-0.9-0.2-1.7-0.7-2.4c-0.5-0.7-1.1-1.1-2-1.1c-0.8,0-1.5,0.3-1.9,1c-0.5,0.7-0.7,1.5-0.7,2.3c0,0.9,0.2,1.7,0.7,2.4
		c0.5,0.7,1.1,1.1,2,1.1c0.8,0,1.5-0.3,1.9-1C322.5,126.1,322.7,125.3,322.7,124.4L322.7,124.4z"/>
	<path class="st0" d="M333.2,120.2l-0.4,1.4c-0.5-0.2-0.9-0.3-1.3-0.3c-1.1,0-1.8,0.5-2.1,1.6c0,2.7,0,4.6,0.1,5.7h-1.6
		c0.1-1.9,0.1-3.3,0.1-4.3c0-1.4-0.1-2.7-0.4-4l1.5-0.2c0.1,0.6,0.2,1.1,0.2,1.3h0.1c0.6-0.9,1.4-1.4,2.2-1.4
		C332.1,119.9,332.6,120,333.2,120.2L333.2,120.2z"/>
	<path class="st0" d="M342.6,128.6l-1.4,0.1c-0.1-0.3-0.1-0.6-0.1-0.8H341c-0.7,0.7-1.7,1-2.9,1c-0.7,0-1.3-0.2-1.7-0.6
		c-0.5-0.4-0.7-1-0.7-1.7c0-0.9,0.4-1.6,1.1-2.2c0.8-0.5,2.2-0.8,4.2-0.9c0-0.1,0-0.3,0-0.5c0-0.7-0.2-1.2-0.6-1.4
		c-0.4-0.2-1-0.4-1.7-0.4c-0.9,0-1.8,0.1-2.7,0.3l0.1-1.2c0.9-0.3,1.9-0.4,3-0.4c1,0,1.9,0.2,2.4,0.6c0.6,0.4,0.9,1.2,0.9,2.2
		c0,0.3,0,0.8,0,1.5c0,0.7,0,1.2,0,1.4C342.3,126.8,342.4,127.7,342.6,128.6L342.6,128.6z M341,126.9c0-0.9,0-1.7,0-2.4
		c-1.1,0-1.9,0.1-2.5,0.2c-1,0.3-1.4,0.9-1.4,1.7c0,0.8,0.6,1.2,1.7,1.2C339.7,127.6,340.4,127.3,341,126.9L341,126.9z"/>
	<path class="st0" d="M351.3,127.4l-0.1,1.1c-0.5,0.2-0.9,0.3-1.3,0.3c-1.1,0-1.8-0.3-2.2-0.8c-0.4-0.5-0.6-1.5-0.6-2.9
		c0-0.9,0-2.1,0-3.5c-0.3,0-0.8,0-1.4,0.1l0.1-1.3c0.6,0,1.1,0.1,1.5,0.1c0-0.4,0-1.2,0.1-2.5l1.4-0.1c-0.1,1.2-0.2,2.1-0.2,2.6
		c0.6,0,1.4,0,2.5-0.1l-0.1,1.3c-1.1,0-1.9-0.1-2.5-0.1c0,0.9,0,1.9,0,3c0,1.2,0.1,2,0.4,2.4c0.3,0.4,0.7,0.6,1.4,0.6
		C350.5,127.5,350.9,127.5,351.3,127.4L351.3,127.4z"/>
	<path class="st0" d="M356.2,128.6h-1.6c0.1-1.2,0.1-2.5,0.1-4c0-1.7-0.1-3.1-0.3-4.3l1.8-0.2c-0.1,1.2-0.1,2.7-0.1,4.5
		C356.1,126,356.1,127.3,356.2,128.6L356.2,128.6z M356.6,117.6c0,0.3-0.1,0.6-0.3,0.8c-0.2,0.2-0.5,0.3-0.8,0.3
		c-0.3,0-0.5-0.1-0.7-0.3c-0.2-0.2-0.3-0.4-0.3-0.7c0-0.3,0.1-0.5,0.3-0.8c0.2-0.2,0.5-0.3,0.8-0.3c0.3,0,0.5,0.1,0.7,0.3
		C356.5,117.1,356.6,117.3,356.6,117.6L356.6,117.6z"/>
	<path class="st0" d="M368.2,124.1c0,1.5-0.4,2.7-1.3,3.5c-0.9,0.8-1.9,1.3-3,1.3c-1.1,0-2-0.4-2.8-1.1c-0.8-0.7-1.2-1.8-1.2-3.1
		c0-1.5,0.4-2.7,1.3-3.5c0.9-0.9,1.9-1.3,3-1.3c1.1,0,2,0.4,2.8,1.1C367.8,121.7,368.2,122.8,368.2,124.1L368.2,124.1z M366.7,124.4
		c0-0.9-0.2-1.7-0.7-2.4c-0.5-0.7-1.1-1.1-2-1.1c-0.8,0-1.5,0.3-1.9,1c-0.5,0.7-0.7,1.5-0.7,2.3c0,0.9,0.2,1.7,0.7,2.4
		c0.5,0.7,1.1,1.1,2,1.1c0.8,0,1.5-0.3,1.9-1C366.5,126.1,366.7,125.3,366.7,124.4L366.7,124.4z"/>
	<path class="st0" d="M379.4,128.6h-1.6c0.1-1.5,0.2-3.2,0.2-5c0-0.9-0.2-1.5-0.5-1.8c-0.4-0.3-0.9-0.5-1.6-0.5
		c-0.8,0-1.6,0.3-2.3,0.9c0,2,0,4.2,0,6.5H372c0.1-2,0.1-3.4,0.1-4.3c0-1.4-0.1-2.7-0.4-4l1.5-0.2l0.2,1.1h0.1
		c0.9-0.8,1.8-1.2,2.8-1.2c1,0,1.7,0.2,2.3,0.6c0.5,0.4,0.8,1.2,0.8,2.3c0,0.1,0,0.3,0,0.7c0,0.3,0,0.5,0,0.7
		C379.3,125.2,379.4,126.6,379.4,128.6L379.4,128.6z"/>
	<path class="st0" d="M244.8,16.4l-0.1,3.3h-12.9c0.1-3,0.2-6.5,0.2-10.3c0-3.7-0.1-6.8-0.2-9.4h12.3L244,3.3
		c-3-0.2-5.8-0.2-8.2-0.2c0.1,1.4,0.1,3.1,0.1,5c2.1,0,4.4-0.1,6.8-0.2V11c-2.4-0.1-4.6-0.1-6.8-0.1c0,2,0,4,0.1,5.8
		C238.8,16.6,241.7,16.6,244.8,16.4L244.8,16.4z"/>
	<path class="st0" d="M258,15.6c0,3-2.2,4.5-6.7,4.5c-1.6,0-3.1-0.2-4.3-0.5l0.5-3c1.3,0.5,2.5,0.7,3.8,0.7c1.2,0,2.1-0.1,2.5-0.3
		c0.5-0.2,0.7-0.5,0.7-1c0-0.7-0.8-1.4-2.5-2.1c-1.5-0.6-2.6-1.2-3.2-1.7c-0.9-0.8-1.4-1.8-1.4-2.9c0-1.3,0.5-2.4,1.5-3.2
		c1-0.8,2.5-1.2,4.4-1.2c1.8,0,3.2,0.2,4.2,0.5l-0.5,3c-1.1-0.4-2.4-0.7-3.7-0.7c-1.6,0-2.4,0.4-2.4,1.2c0,0.4,0.2,0.8,0.5,1
		c0.3,0.3,1,0.6,2.1,1c1.5,0.5,2.5,1.1,3.2,1.7C257.5,13.3,258,14.3,258,15.6L258,15.6z"/>
	<path class="st0" d="M275.3,11.9c0,2.2-0.6,4.1-1.9,5.8c-1.3,1.7-3,2.5-5.1,2.5c-1.6,0-2.7-0.3-3.3-1h-0.2c0,2.5,0,5,0.1,7.5h-4.1
		c0.2-2.9,0.3-6.2,0.3-10c0-4.9-0.3-8.6-0.8-11.2l3.9-0.4l0.2,1.3h0.2c1.1-1,2.5-1.5,4.4-1.5c1.9,0,3.5,0.7,4.6,2.1
		C274.7,8.3,275.3,10,275.3,11.9L275.3,11.9z M271.3,12.3c0-1.3-0.3-2.4-1-3.3c-0.6-0.9-1.5-1.4-2.6-1.4c-1.4,0-2.4,0.4-3.1,1.2
		c0.1,2.8,0.2,5.4,0.2,7.8c0.6,0.5,1.5,0.7,2.5,0.7c1.3,0,2.3-0.5,3-1.5C270.9,14.9,271.3,13.7,271.3,12.3L271.3,12.3z"/>
	<path class="st0" d="M291.2,11c0,0.5,0,1.2-0.1,2l-9.7,0.2c0.1,1.1,0.6,2.1,1.5,2.8c0.8,0.8,1.9,1.1,3.3,1.1c1.5,0,3.1-0.2,4.8-0.7
		l-0.3,2.9c-1.4,0.5-3.1,0.8-5.2,0.8c-2.6,0-4.6-0.7-6-2.2c-1.4-1.5-2.1-3.2-2.1-5.3c0-2.1,0.7-4,2-5.6c1.3-1.6,3.1-2.4,5.5-2.4
		c2.1,0,3.7,0.6,4.8,1.7C290.7,7.6,291.2,9.1,291.2,11L291.2,11z M287.6,10.8c0-2.3-1-3.5-3-3.5c-1.9,0-3,1.2-3.4,3.6L287.6,10.8
		L287.6,10.8z"/>
	<path class="st0" d="M303.9,5.3L303,8.9c-0.7-0.3-1.5-0.5-2.3-0.5c-1.5,0-2.5,0.7-2.9,2c0,4,0,7.1,0.1,9.3h-4
		c0.2-3,0.3-5.5,0.3-7.4c0-2.4-0.3-4.7-0.8-6.8l3.9-0.4c0.2,1.1,0.3,1.8,0.3,2h0.2c0.9-1.4,2.2-2.1,3.7-2.1
		C302.2,4.8,303,5,303.9,5.3L303.9,5.3z"/>
	<path class="st0" d="M318.2,19.7l-3.6,0.1c-0.2-0.4-0.2-0.8-0.2-1.2h-0.2c-1.1,0.9-2.6,1.4-4.5,1.4c-1.3,0-2.3-0.4-3.1-1
		c-0.8-0.7-1.3-1.6-1.3-2.8c0-1.5,0.6-2.8,1.9-3.8c1.3-1,3.6-1.5,6.8-1.6c0-0.2,0-0.4,0-0.5c0-1.1-0.3-1.8-0.8-2.2
		c-0.5-0.4-1.5-0.5-2.9-0.5c-1.5,0-3,0.2-4.5,0.6l0.3-2.8c1.4-0.5,3.3-0.7,5.8-0.7c1.8,0,3.2,0.4,4.2,1.2c1,0.8,1.5,2.1,1.5,4
		c0,0.4,0,1.2-0.1,2.3c0,1.1-0.1,1.9-0.1,2.2C317.7,16.7,317.8,18.4,318.2,19.7L318.2,19.7z M314.1,16.5c-0.1-1.4-0.1-2.5-0.1-3.5
		c-3.4,0-5.2,0.9-5.2,2.6c0,1.2,0.8,1.8,2.3,1.8C312.3,17.4,313.3,17.1,314.1,16.5L314.1,16.5z"/>
	<path class="st0" d="M334.8,19.7h-4c0.2-2.6,0.3-5.1,0.3-7.7c0-1.6-0.2-2.7-0.7-3.2c-0.5-0.6-1.2-0.8-2.1-0.8
		c-1.2,0-2.2,0.4-3.3,1.2c0.1,3.9,0.1,7.5,0.1,10.6h-4.1c0.2-3.2,0.3-5.6,0.3-7.4c0-2.4-0.2-4.7-0.7-6.8l3.9-0.4l0.3,1.6h0.2
		c1.4-1.2,3-1.8,4.8-1.8c1.6,0,2.8,0.4,3.7,1.1c0.9,0.7,1.4,2.1,1.4,4.1c0,0.3,0,0.7,0,1.2c0,0.5,0,1,0,1.5
		C334.7,14,334.7,16.4,334.8,19.7L334.8,19.7z"/>
	<path class="st0" d="M349.6,16.5l-0.3,2.9c-0.9,0.5-2.2,0.7-3.7,0.7c-2.6,0-4.6-0.7-6-2.2c-1.4-1.5-2.1-3.2-2.1-5.2
		c0-2.1,0.7-4,2.2-5.5c1.5-1.6,3.5-2.4,6-2.4c1.2,0,2.3,0.1,3.3,0.4l-0.5,3.1c-0.9-0.4-2-0.6-3.1-0.6c-1.2,0-2.2,0.4-2.9,1.3
		c-0.7,0.9-1.1,1.9-1.1,3.2c0,1.4,0.4,2.5,1.3,3.5c0.8,0.9,2,1.4,3.6,1.4C347.1,17.1,348.2,16.9,349.6,16.5L349.6,16.5z"/>
	<path class="st0" d="M365.1,11c0,0.5,0,1.2-0.1,2l-9.7,0.2c0.1,1.1,0.6,2.1,1.5,2.8c0.8,0.8,1.9,1.1,3.3,1.1c1.5,0,3.1-0.2,4.8-0.7
		l-0.3,2.9c-1.4,0.5-3.1,0.8-5.2,0.8c-2.6,0-4.6-0.7-6-2.2s-2.1-3.2-2.1-5.3c0-2.1,0.7-4,2-5.6c1.3-1.6,3.1-2.4,5.5-2.4
		c2.1,0,3.7,0.6,4.8,1.7C364.6,7.6,365.1,9.1,365.1,11L365.1,11z M361.5,10.8c0-2.3-1-3.5-3-3.5c-1.9,0-3,1.2-3.4,3.6L361.5,10.8
		L361.5,10.8z"/>
	<path class="st0" d="M214.1,21.8l-0.3,7.7c-4.7-0.4-9.2-0.5-13.4-0.5c0,4.5-0.1,9.5-0.1,15c0,8.6,0.1,16.6,0.4,24.3h-10
		c0.3-7.6,0.5-15.6,0.5-24.3c0-5.4,0-10.4-0.1-15c-3.3,0-7.9,0.2-13.8,0.6l0.3-7.7H214.1L214.1,21.8z"/>
	<path class="st0" d="M216,44.5c-0.2,4.9-0.3,9.8-0.3,14.7c0,1.3,0,3,0.1,5.2c0.1,2.2,0.1,3.7,0.1,4.5c0,6-2.4,9.5-7.2,10.4
		l-1.8-3.4c1.2-0.9,1.9-2.3,2.4-4.1c0.4-1.8,0.6-5.6,0.6-11.4c0-6.6-0.3-11.7-0.9-15.3L216,44.5L216,44.5z M217.1,37.6
		c0,1.1-0.4,2.1-1.1,2.9c-0.8,0.8-1.8,1.2-3.2,1.2c-1.1,0-2-0.4-2.7-1.1c-0.6-0.7-1-1.6-1-2.6c0-1.1,0.4-2.1,1.2-2.9
		c0.8-0.8,1.8-1.2,3.2-1.2c1.2,0,2,0.4,2.7,1.1C216.8,35.8,217.1,36.6,217.1,37.6L217.1,37.6z"/>
	<path class="st0" d="M241.5,68.2l-5.8,0.2c-0.3-0.7-0.4-1.3-0.4-1.9H235c-1.8,1.5-4.2,2.3-7.2,2.3c-2,0-3.7-0.6-5.1-1.7
		c-1.4-1.1-2-2.6-2-4.5c0-2.5,1-4.5,3.1-6.1c2.1-1.6,5.8-2.4,11-2.5c0-0.3,0.1-0.6,0.1-0.8c0-1.8-0.4-2.9-1.3-3.5
		c-0.8-0.6-2.4-0.8-4.7-0.8c-2.5,0-4.9,0.3-7.2,1l0.5-4.5c2.2-0.8,5.3-1.2,9.4-1.2c3,0,5.2,0.6,6.8,1.9c1.6,1.2,2.4,3.4,2.4,6.5
		c0,0.7,0,1.9-0.1,3.7c-0.1,1.8-0.1,3-0.1,3.6C240.7,63.3,240.9,66,241.5,68.2L241.5,68.2z M234.9,63.1c-0.1-2.2-0.2-4.1-0.2-5.7
		c-5.5,0-8.3,1.4-8.3,4.2c0,1.9,1.2,2.9,3.7,2.9C232,64.5,233.6,64.1,234.9,63.1L234.9,63.1z"/>
	<path class="st0" d="M253.4,68.2h-6.7c0.3-5.6,0.4-11.6,0.4-18.1c0-6.3-0.3-11.7-0.8-16.2l7.1-0.4c-0.2,4.6-0.4,10.1-0.4,16.6
		C253.1,56.6,253.2,62.7,253.4,68.2L253.4,68.2z"/>
	<path class="st0" d="M273.5,63.6l-0.4,4.4c-1.1,0.5-2.6,0.7-4.3,0.7c-2.6,0-4.6-0.7-6-2.2c-1.3-1.4-2-4.2-2-8.3c0-2.4,0-5.2,0-8.3
		c-0.8,0-2,0-3.4,0.1l0.2-4.8c1.3,0.1,2.4,0.1,3.5,0.1c0-0.9,0.1-3.1,0.2-6.8l5.8-0.7c-0.3,3.2-0.4,5.8-0.4,7.5
		c1.4,0,3.4-0.1,6.1-0.2l-0.2,4.9c-2.5-0.1-4.5-0.1-6-0.1c0,2.2-0.1,4.4-0.1,6.8c0,2.9,0.3,4.8,0.9,5.8c0.6,1,1.6,1.5,3.1,1.5
		C271.5,64.1,272.5,63.9,273.5,63.6L273.5,63.6z"/>
	<path class="st0" d="M284.1,44.5c-0.2,4.9-0.3,9.8-0.3,14.7c0,1.3,0,3,0.1,5.2c0.1,2.2,0.1,3.7,0.1,4.5c0,6-2.4,9.5-7.2,10.4
		l-1.8-3.4c1.2-0.9,1.9-2.3,2.4-4.1c0.4-1.8,0.6-5.6,0.6-11.4c0-6.6-0.3-11.7-0.9-15.3L284.1,44.5L284.1,44.5z M285.2,37.6
		c0,1.1-0.4,2.1-1.1,2.9c-0.8,0.8-1.8,1.2-3.2,1.2c-1.1,0-2-0.4-2.7-1.1c-0.6-0.7-1-1.6-1-2.6c0-1.1,0.4-2.1,1.2-2.9
		c0.8-0.8,1.8-1.2,3.2-1.2c1.2,0,2,0.4,2.7,1.1C284.8,35.8,285.2,36.6,285.2,37.6L285.2,37.6z"/>
	<path class="st0" d="M305.7,45l-1.4,5.7c-1.2-0.5-2.4-0.7-3.7-0.7c-2.4,0-4,1.1-4.7,3.2c0,6.5,0.1,11.5,0.2,15h-6.5
		c0.3-4.9,0.4-8.9,0.4-12c0-3.9-0.4-7.5-1.2-11l6.2-0.7c0.3,1.8,0.4,2.8,0.4,3.2h0.4c1.5-2.3,3.5-3.4,6-3.4
		C303,44.2,304.3,44.5,305.7,45L305.7,45z"/>
	<path class="st0" d="M328.8,68.2l-5.8,0.2c-0.3-0.7-0.4-1.3-0.4-1.9h-0.3c-1.8,1.5-4.2,2.3-7.2,2.3c-2,0-3.7-0.6-5.1-1.7
		c-1.4-1.1-2-2.6-2-4.5c0-2.5,1-4.5,3.1-6.1c2.1-1.6,5.8-2.4,11-2.5c0-0.3,0.1-0.6,0.1-0.8c0-1.8-0.4-2.9-1.3-3.5
		c-0.8-0.6-2.4-0.8-4.7-0.8c-2.5,0-4.9,0.3-7.2,1l0.5-4.5c2.2-0.8,5.3-1.2,9.4-1.2c3,0,5.2,0.6,6.8,1.9c1.6,1.2,2.4,3.4,2.4,6.5
		c0,0.7,0,1.9-0.1,3.7c-0.1,1.8-0.1,3-0.1,3.6C328,63.3,328.2,66,328.8,68.2L328.8,68.2z M322.2,63.1c-0.1-2.2-0.2-4.1-0.2-5.7
		c-5.5,0-8.3,1.4-8.3,4.2c0,1.9,1.2,2.9,3.7,2.9C319.4,64.5,321,64.1,322.2,63.1L322.2,63.1z"/>
	<path class="st0" d="M353.3,68.2l-5.8,0.2c-0.3-0.7-0.4-1.3-0.4-1.9h-0.3c-1.8,1.5-4.2,2.3-7.2,2.3c-2,0-3.7-0.6-5.1-1.7
		c-1.4-1.1-2-2.6-2-4.5c0-2.5,1-4.5,3.1-6.1c2.1-1.6,5.8-2.4,11-2.5c0-0.3,0.1-0.6,0.1-0.8c0-1.8-0.4-2.9-1.3-3.5
		c-0.8-0.6-2.4-0.8-4.7-0.8c-2.5,0-4.9,0.3-7.2,1l0.5-4.5c2.2-0.8,5.3-1.2,9.4-1.2c3,0,5.2,0.6,6.8,1.9c1.6,1.2,2.4,3.4,2.4,6.5
		c0,0.7,0,1.9-0.1,3.7c-0.1,1.8-0.1,3-0.1,3.6C352.5,63.3,352.8,66,353.3,68.2L353.3,68.2z M346.8,63.1c-0.1-2.2-0.2-4.1-0.2-5.7
		c-5.5,0-8.3,1.4-8.3,4.2c0,1.9,1.2,2.9,3.7,2.9C343.9,64.5,345.5,64.1,346.8,63.1L346.8,63.1z"/>
	<path class="st0" d="M380.4,68.2h-7.5c0-0.6-1.2-2.6-3.7-6.1c-2.5-3.5-4-5.2-4.7-5.2h-0.3c0,3.3,0.1,7.1,0.3,11.3H358
		c0.2-7.6,0.3-13.6,0.3-18.1c0-6.2-0.2-11.6-0.7-16.2l6.9-0.4c-0.2,6.2-0.3,11.7-0.3,16.6c0,0.6,0,1.8,0,3.6h0.3
		c0.5,0,1.7-1.3,3.9-3.9c2.1-2.6,3.2-4.2,3.2-4.7h7.3c0,0.5-1.1,1.9-3.3,4.2c-2.2,2.3-4,3.9-5.4,4.8v0.4c1.5,1.1,3.6,3.5,6.3,7.2
		C379.1,65.4,380.4,67.6,380.4,68.2L380.4,68.2z"/>
	<path class="st1" d="M106.3,56.1c0.2,0,0.4,0,0.6-0.1c0.8-0.1,1.5-0.2,2.2-0.4c2.6-0.6,5.1-0.9,7.9-1.5c2-0.4,4.4-1.5,7.6-2.2
		c5.3-1.3,13.4-2.2,18.7-1.4c5.4,0.8,12.8,3.2,19.5,8.3c6.7,5.1,13.1,12.9,18.2,18.7c5.1,5.8,8.7,9.5,11.6,11.9c2.9,2.4,5.1,3.5,5,4
		c-0.1,0.5-2.3,0.5-5.9,0.1c-3.5-0.4-8.4-1.1-15.1-0.9c-6.7,0.2-15.3,1.4-24.1,1.5c-8.8,0.1-17.9-0.8-25.8-3.1
		c-7.9-2.3-14.5-6-18.6-10.6c-2.7-3.1-4.2-6.7-4.8-9.9c0-0.4-0.1-0.7-0.1-1.1c0-0.4,0-0.7,0.1-1.1c0.1-0.4,0.2-0.7,0.5-1.1
		c0.2-0.4,0.6-0.9,0.8-1.4c0.2-0.4,0.3-0.8,0.4-1l0,0c0.1-0.2,0.1-0.3,0.2-0.5c0.2-0.4,0.3-0.8,0.5-1.2c0.2-0.5,0.5-0.9,0.7-1.4
		l0.3-0.6l0-0.5c0-0.2,0-0.4,0-0.6c0-1-0.1-2-0.2-3C106.4,56.6,106.3,56.3,106.3,56.1L106.3,56.1z"/>
	<path class="st1" d="M73.2,21.5c-1.7-0.5-2.7-0.8-3.6-1c-3.2-1.3-6.1-2.6-8.2-3.8c-3.6-2-5.4-3.6-6.1-3.9s-1.2-1.1,0.6,2.4
		c1.8,3.5,3.2,4.2,4.2,7.4c1.1,3.3,1.2,7.4,1.5,11.2c0.3,3.8,0.9,7.4,2.5,10.5c0.3,0.6,0.7,1.2,1.1,1.8c0.1-0.8,0.2-1.7,0.4-2.5
		c0.3-1.7,0.7-3.5,1.3-5.1c0.5-1.2,1-2.1,1.9-3c0.9-0.9,2-1.7,3.2-2.2c0.5-0.2,1.1-0.4,1.7-0.5c-0.5-1.4-0.8-2.8-1-4.2
		c-0.2-1.4-0.3-2.8-0.2-4.2C72.6,23.5,72.8,22.5,73.2,21.5L73.2,21.5z"/>
	<path class="st1" d="M131.6,19.9l0.4-0.1c6.1-1.2,11.2-1.1,16.3-2.2c5.1-1.1,7.8-2.6,13.5-4.5c5.8-1.9,7-2.9,3.1,1.3
		c-3.9,4.2-4.9,6.4-7.1,11.9c-2.2,5.4-2.9,12.1-4.9,17.7c-0.8,2.2-1.8,4.2-3,6c-2.1-0.7-4.3-1.2-6.4-1.5c-5.7-0.9-13.9,0.1-19.5,1.4
		c-1.5,0.4-2.9,0.8-4.4,1.3c-1,0.3-2.1,0.7-3.2,0.9c-2.6,0.6-5.3,1-7.9,1.5c-0.7,0.1-1.3,0.3-2,0.3c-0.2,0-0.4,0-0.6,0.1
		c-0.1-0.6-0.2-1.3-0.3-1.9c-0.1-0.3-0.2-0.7-0.2-1.1c0-0.1,0-0.2,0-0.3c0.1-0.5,0.5-0.9,0.9-1.2c0.4-0.4,0.9-0.9,1.3-1.1
		c0.3-0.1,0.6-0.2,0.9-0.1c0.6,0,1.2,0.2,1.7,0.2c1.2,0.2,2.4,0.3,3.6,0.3c1.9,0,3.8-0.1,5.7-0.4c2.2-0.4,4.1-1.2,6-2.5
		c2.1-1.5,4.3-3.5,6-5.5c1.5-1.8,2.7-3.7,3.6-5.8c0.6-1.5,1.1-3.2,1.1-4.8c0-1.4-0.2-2.7-0.7-4c-0.6-1.6-1.5-2.8-2.6-4.1
		C132.5,20.9,132.1,20.4,131.6,19.9L131.6,19.9z"/>
	<path class="st1" d="M102.9,82.5c-1.1,3.6-3.9,7.8-9.6,10.6c-6,3-15.1,4.4-24.7,4.2c-9.6-0.2-19.6-2-28.8-4.9
		c-9.2-2.9-17.4-6.8-24.3-10.1C8.8,79,5.3,77,1.7,74.6c-3.6-2.4-1.1-1.4,4.9-2.9c6-1.6,7.1-1.6,12.2-3.8c5.1-2.2,10.4-5.7,15.5-9.2
		c5.1-3.4,10-6.8,17.5-8.4c3.9-0.8,8.6-1.2,13.2-1.1c0,0.3,0,0.5,0,0.8c0,1.5,0.2,2.9,0.7,4.3c0.4,1.2,1,2.2,1.9,3.1
		c1,1.1,2.2,1.9,3.6,2.6c1.8,0.9,3.8,1.5,5.8,1.8c2.3,0.4,4.9,0.5,7.2,0.3c2-0.2,3.7-0.7,5.5-1.8c0.5-0.3,1-0.6,1.4-0.9l1.2,0.5
		c0.6,0.2,1.1,0.4,1.7,0.5c1.4,0.3,2.7,0.2,4.1,0c0.9-0.1,1.9-0.2,2.8-0.5c0,0.3,0,0.6,0.1,0.9c0.1,1.1,0.1,2.1,0.1,3.2l0.1,3
		c0,0.7,0,1.5,0,2.2c0,0.7,0,1.3,0.1,1.8c0.1,0.6,0.2,1.1,0.5,1.8c0.2,0.7,0.6,1.5,0.8,2.3c0.3,0.8,0.4,1.6,0.6,2.3
		c0.1,0.7,0.2,1.4,0.3,2c0,0.6,0,1.2-0.1,1.7C103.1,81.7,103,82,102.9,82.5L102.9,82.5z"/>
	<path class="st2" d="M92.9,58c0.5,0.2,0.9,0.3,1.4,0.4c1.1,0.2,2.2,0.1,3.5,0c1-0.1,2.1-0.3,2.9-0.5l0-0.4
		c-0.1-0.8-0.1-1.7-0.3-2.5c0-0.2-0.1-0.4-0.2-0.6c0-0.1-0.1-0.1-0.1-0.2c-0.1-0.1-0.2-0.2-0.2-0.2c-0.3-0.1-0.8-0.1-1.1-0.2
		c-0.4,0-1-0.1-1.4,0c-0.2,0.1-0.4,0.2-0.5,0.3c-0.3,0.3-0.7,0.7-1,1.1c-0.7,0.8-1.4,1.6-2.2,2.3C93.3,57.6,93.1,57.8,92.9,58
		L92.9,58z"/>
	<path class="st2" d="M30.2,61.4c1.4-0.9,2.7-1.8,4.1-2.7c5.1-3.4,10-6.8,17.5-8.4c3.9-0.8,8.6-1.2,13.2-1.1c0,0.3,0,0.5,0,0.8
		c0,1.5,0.2,2.9,0.7,4.3c0.4,1.2,1,2.2,1.9,3.1c1,1.1,2.2,1.9,3.6,2.6c1.8,0.9,3.8,1.5,5.8,1.8c2.3,0.4,4.9,0.5,7.2,0.3
		c2-0.2,3.7-0.7,5.5-1.8c0.5-0.3,1-0.6,1.4-0.9l1.2,0.5c0.6,0.2,1.1,0.4,1.7,0.5c1.4,0.3,2.7,0.2,4.1,0c0.9-0.1,1.9-0.2,2.8-0.5
		c0,0.3,0,0.6,0.1,0.9c0.1,1.1,0.1,2.1,0.1,3.2l0.1,3c0,0.7,0,1.5,0,2.2c0,0.7,0,1.3,0.1,1.8c0.1,0.6,0.2,1.1,0.5,1.8
		c0.2,0.7,0.6,1.5,0.8,2.3c0.3,0.8,0.4,1.6,0.6,2.3c0.1,0.6,0.2,1.1,0.2,1.6c-1.3,0-2.6,0-4,0C66.9,79.2,39.5,71.7,30.2,61.4
		L30.2,61.4z"/>
	<path class="st2" d="M61.4,32c3.6-0.8,7.5-1.5,11.5-2c0.2,1,0.4,2,0.8,2.9c-0.6,0.1-1.1,0.3-1.7,0.5c-1.2,0.5-2.3,1.3-3.2,2.2
		c-0.9,0.9-1.4,1.8-1.9,3c-0.6,1.6-1,3.4-1.3,5.1c-0.1,0.8-0.3,1.7-0.4,2.5c-0.4-0.6-0.8-1.2-1.1-1.8c-1.6-3.1-2.2-6.7-2.5-10.5
		C61.5,33.3,61.4,32.7,61.4,32L61.4,32z"/>
	<path class="st2" d="M136,31.8c7.2,1.5,13.5,3.4,18.8,5.6c-0.5,2.2-1.1,4.4-1.8,6.4c-0.8,2.2-1.8,4.2-3,6c-2.1-0.7-4.3-1.2-6.4-1.5
		c-5.7-0.9-13.9,0.1-19.5,1.4c-1.5,0.4-2.9,0.8-4.4,1.3c-1,0.3-2.1,0.7-3.2,0.9c-2.6,0.6-5.3,1-7.9,1.5c-0.7,0.1-1.3,0.3-2,0.3
		c-0.2,0-0.4,0-0.6,0.1c-0.1-0.6-0.2-1.3-0.3-1.9c-0.1-0.3-0.2-0.7-0.2-1.1c0-0.1,0-0.2,0-0.3c0.1-0.5,0.5-0.9,0.9-1.2
		c0.4-0.4,0.9-0.9,1.3-1.1c0.3-0.1,0.6-0.2,0.9-0.1c0.6,0,1.2,0.2,1.7,0.2c1.2,0.2,2.4,0.3,3.6,0.3c1.9,0,3.8-0.1,5.7-0.4
		c2.2-0.4,4.1-1.2,6-2.5c2.1-1.5,4.3-3.5,6-5.5c1.5-1.8,2.7-3.7,3.6-5.8C135.5,33.5,135.8,32.7,136,31.8L136,31.8z"/>
	<path class="st2" d="M106.3,56.1c0.2,0,0.4,0,0.6-0.1c0.8-0.1,1.5-0.2,2.2-0.4c2.6-0.6,5.1-0.9,7.9-1.5c2-0.4,4.4-1.5,7.6-2.2
		c5.3-1.3,13.4-2.2,18.7-1.4c5.4,0.8,12.8,3.2,19.5,8.3c1.5,1.1,3,2.4,4.5,3.8c-9.3,8.9-32.3,15.4-60.1,16.5
		c-2.1-2.8-3.3-5.8-3.8-8.6c0-0.4-0.1-0.7-0.1-1.1c0-0.4,0-0.7,0.1-1.1c0.1-0.4,0.2-0.7,0.5-1.1c0.2-0.4,0.6-0.9,0.8-1.4
		c0.2-0.4,0.3-0.8,0.4-1l0,0c0.1-0.2,0.1-0.3,0.2-0.5c0.2-0.4,0.3-0.8,0.5-1.2c0.2-0.5,0.5-0.9,0.7-1.4l0.3-0.6l0-0.5
		c0-0.2,0-0.4,0-0.6c0-1-0.1-2-0.2-3C106.4,56.6,106.3,56.3,106.3,56.1L106.3,56.1z"/>
	<path class="st3" d="M292.5,103c3.2,0,5.8-2.6,5.8-5.8c0-3.2-2.6-5.8-5.8-5.8c-3.2,0-5.8,2.6-5.8,5.8
		C286.7,100.4,289.3,103,292.5,103L292.5,103z"/>
	<path class="st3" d="M304.8,105.9c2.9,0,5.2-2.3,5.2-5.2c0-2.9-2.3-5.2-5.2-5.2c-2.9,0-5.2,2.3-5.2,5.2
		C299.6,103.5,302,105.9,304.8,105.9L304.8,105.9z"/>
	<path class="st3" d="M316.8,106.4c2.6,0,4.7-2.1,4.7-4.7c0-2.6-2.1-4.7-4.7-4.7c-2.6,0-4.7,2.1-4.7,4.7
		C312.1,104.3,314.2,106.4,316.8,106.4L316.8,106.4z"/>
	<path class="st3" d="M327.3,105.1c2.3,0,4.2-1.9,4.2-4.2c0-2.3-1.9-4.2-4.2-4.2c-2.3,0-4.2,1.9-4.2,4.2
		C323.1,103.3,325,105.1,327.3,105.1L327.3,105.1z"/>
	<path class="st3" d="M347.2,103c2,0,3.6-1.6,3.6-3.6c0-2-1.6-3.6-3.6-3.6c-2,0-3.6,1.6-3.6,3.6C343.6,101.4,345.2,103,347.2,103
		L347.2,103z"/>
	<path class="st3" d="M338,104.5c2.3,0,4.2-1.9,4.2-4.2c0-2.3-1.9-4.2-4.2-4.2c-2.3,0-4.2,1.9-4.2,4.2
		C333.8,102.7,335.6,104.5,338,104.5L338,104.5z"/>
	<path class="st3" d="M356.9,101.7c1.7,0,3.1-1.4,3.1-3.1c0-1.7-1.4-3.1-3.1-3.1c-1.7,0-3.1,1.4-3.1,3.1
		C353.8,100.4,355.2,101.7,356.9,101.7L356.9,101.7z"/>
	<path class="st3" d="M365.2,101.7c1.5,0,2.7-1.2,2.7-2.7s-1.2-2.7-2.7-2.7c-1.5,0-2.7,1.2-2.7,2.7S363.7,101.7,365.2,101.7
		L365.2,101.7z"/>
	<path class="st3" d="M372.7,102c1.3,0,2.3-1,2.3-2.3c0-1.3-1-2.3-2.3-2.3c-1.3,0-2.3,1-2.3,2.3C370.4,101,371.4,102,372.7,102
		L372.7,102z"/>
	<path class="st3" d="M279.1,97.9c2.9,0,5.2-2.3,5.2-5.2c0-2.9-2.3-5.2-5.2-5.2c-2.9,0-5.2,2.3-5.2,5.2
		C273.9,95.5,276.2,97.9,279.1,97.9L279.1,97.9z"/>
	<path class="st3" d="M267.7,93.4c2.6,0,4.7-2.1,4.7-4.7s-2.1-4.7-4.7-4.7c-2.6,0-4.7,2.1-4.7,4.7S265.1,93.4,267.7,93.4L267.7,93.4
		z"/>
	<path class="st3" d="M256.1,89.6c2.3,0,4.2-1.9,4.2-4.2c0-2.3-1.9-4.2-4.2-4.2c-2.3,0-4.2,1.9-4.2,4.2
		C252,87.7,253.8,89.6,256.1,89.6L256.1,89.6z"/>
	<path class="st3" d="M246,88.1c2,0,3.6-1.6,3.6-3.6c0-2-1.6-3.6-3.6-3.6c-2,0-3.6,1.6-3.6,3.6C242.4,86.5,244,88.1,246,88.1
		L246,88.1z"/>
	<path class="st3" d="M236.8,88.5c1.7,0,3.1-1.4,3.1-3.1c0-1.7-1.4-3.1-3.1-3.1c-1.7,0-3.1,1.4-3.1,3.1
		C233.7,87.1,235.1,88.5,236.8,88.5L236.8,88.5z"/>
	<path class="st3" d="M228.8,90.8c1.7,0,3.1-1.4,3.1-3.1c0-1.7-1.4-3.1-3.1-3.1c-1.7,0-3.1,1.4-3.1,3.1
		C225.7,89.4,227.1,90.8,228.8,90.8L228.8,90.8z"/>
	<path class="st3" d="M221.5,93.4c1.5,0,2.7-1.2,2.7-2.7c0-1.5-1.2-2.7-2.7-2.7s-2.7,1.2-2.7,2.7C218.8,92.2,220,93.4,221.5,93.4
		L221.5,93.4z"/>
	<path class="st3" d="M213.7,95.4c1.3,0,2.3-1,2.3-2.3c0-1.3-1-2.3-2.3-2.3c-1.3,0-2.3,1-2.3,2.3C211.4,94.3,212.4,95.4,213.7,95.4
		L213.7,95.4z"/>
	<path class="st2" d="M277.7,109.1c1.3,0,2.3-1,2.3-2.3c0-1.3-1-2.3-2.3-2.3c-1.3,0-2.3,1-2.3,2.3
		C275.3,108.1,276.4,109.1,277.7,109.1L277.7,109.1z"/>
	<path class="st2" d="M270.6,106.4c1.7,0,3.1-1.4,3.1-3.1c0-1.7-1.4-3.1-3.1-3.1c-1.7,0-3.1,1.4-3.1,3.1
		C267.5,105,268.9,106.4,270.6,106.4L270.6,106.4z"/>
	<path class="st2" d="M262.3,103.3c2,0,3.6-1.6,3.6-3.6s-1.6-3.6-3.6-3.6c-2,0-3.6,1.6-3.6,3.6S260.3,103.3,262.3,103.3L262.3,103.3
		z"/>
	<path class="st2" d="M252.7,100.3c2,0,3.6-1.6,3.6-3.6c0-2-1.6-3.6-3.6-3.6c-2,0-3.6,1.6-3.6,3.6
		C249.1,98.6,250.7,100.3,252.7,100.3L252.7,100.3z"/>
	<path class="st2" d="M242.2,100.3c2.3,0,4.2-1.9,4.2-4.2c0-2.3-1.9-4.2-4.2-4.2c-2.3,0-4.2,1.9-4.2,4.2
		C238,98.4,239.9,100.3,242.2,100.3L242.2,100.3z"/>
	<path class="st2" d="M230.4,103.7c2.6,0,4.7-2.1,4.7-4.7c0-2.6-2.1-4.7-4.7-4.7c-2.6,0-4.7,2.1-4.7,4.7
		C225.7,101.6,227.8,103.7,230.4,103.7L230.4,103.7z"/>
	<path class="st2" d="M218.6,106.8c2.6,0,4.7-2.1,4.7-4.7c0-2.6-2.1-4.7-4.7-4.7s-4.7,2.1-4.7,4.7
		C213.9,104.7,216,106.8,218.6,106.8L218.6,106.8z"/>
	<path class="st2" d="M206,108.2c2.9,0,5.2-2.3,5.2-5.2c0-2.9-2.3-5.2-5.2-5.2c-2.9,0-5.2,2.3-5.2,5.2
		C200.7,105.9,203.1,108.2,206,108.2L206,108.2z"/>
	<path class="st2" d="M192.9,108.6c2.9,0,5.2-2.3,5.2-5.2c0-2.9-2.3-5.2-5.2-5.2c-2.9,0-5.2,2.3-5.2,5.2
		C187.7,106.2,190,108.6,192.9,108.6L192.9,108.6z"/>
	<path class="st2" d="M180.6,107.9c2.3,0,4.2-1.9,4.2-4.2c0-2.3-1.9-4.2-4.2-4.2c-2.3,0-4.2,1.9-4.2,4.2
		C176.4,106,178.3,107.9,180.6,107.9L180.6,107.9z"/>
	<path class="st2" d="M169.7,108c2,0,3.6-1.6,3.6-3.6s-1.6-3.6-3.6-3.6s-3.6,1.6-3.6,3.6S167.7,108,169.7,108L169.7,108z"/>
	<path class="st2" d="M160.1,109.7c2,0,3.6-1.6,3.6-3.6c0-2-1.6-3.6-3.6-3.6c-2,0-3.6,1.6-3.6,3.6
		C156.5,108,158.1,109.7,160.1,109.7L160.1,109.7z"/>
	<path class="st2" d="M150.9,109.7c1.7,0,3.1-1.4,3.1-3.1c0-1.7-1.4-3.1-3.1-3.1c-1.7,0-3.1,1.4-3.1,3.1
		C147.8,108.3,149.2,109.7,150.9,109.7L150.9,109.7z"/>
	<path class="st2" d="M142.7,108.4c1.3,0,2.3-1,2.3-2.3c0-1.3-1-2.3-2.3-2.3c-1.3,0-2.3,1-2.3,2.3
		C140.4,107.4,141.4,108.4,142.7,108.4L142.7,108.4z"/>
	<path class="st2" d="M135.1,106.6c1.3,0,2.3-1,2.3-2.3c0-1.3-1-2.3-2.3-2.3c-1.3,0-2.3,1-2.3,2.3
		C132.8,105.6,133.8,106.6,135.1,106.6L135.1,106.6z"/>
	<path class="st3" d="M379.3,104.9c1.3,0,2.3-1,2.3-2.3c0-1.3-1-2.3-2.3-2.3c-1.3,0-2.3,1-2.3,2.3C377,103.8,378,104.9,379.3,104.9
		L379.3,104.9z"/>
	<path class="st1" d="M295.4,86.3c3.2,0,5.8-2.6,5.8-5.8c0-3.2-2.6-5.8-5.8-5.8c-3.2,0-5.8,2.6-5.8,5.8
		C289.6,83.7,292.2,86.3,295.4,86.3L295.4,86.3z"/>
	<path class="st1" d="M308.8,89.2c3.2,0,5.8-2.6,5.8-5.8c0-3.2-2.6-5.8-5.8-5.8c-3.2,0-5.8,2.6-5.8,5.8
		C303,86.6,305.6,89.2,308.8,89.2L308.8,89.2z"/>
	<path class="st1" d="M321.3,89.2c2.6,0,4.7-2.1,4.7-4.7s-2.1-4.7-4.7-4.7c-2.6,0-4.7,2.1-4.7,4.7S318.7,89.2,321.3,89.2L321.3,89.2
		z"/>
	<path class="st1" d="M332.9,88.1c2.6,0,4.7-2.1,4.7-4.7c0-2.6-2.1-4.7-4.7-4.7c-2.6,0-4.7,2.1-4.7,4.7
		C328.2,86,330.3,88.1,332.9,88.1L332.9,88.1z"/>
	<path class="st1" d="M344.6,87.4c2.3,0,4.2-1.9,4.2-4.2c0-2.3-1.9-4.2-4.2-4.2c-2.3,0-4.2,1.9-4.2,4.2
		C340.4,85.6,342.3,87.4,344.6,87.4L344.6,87.4z"/>
	<path class="st1" d="M355.8,87.1c2,0,3.6-1.6,3.6-3.6s-1.6-3.6-3.6-3.6s-3.6,1.6-3.6,3.6S353.8,87.1,355.8,87.1L355.8,87.1z"/>
	<path class="st1" d="M364.7,88.1c2,0,3.6-1.6,3.6-3.6s-1.6-3.6-3.6-3.6c-2,0-3.6,1.6-3.6,3.6S362.7,88.1,364.7,88.1L364.7,88.1z"/>
	<path class="st1" d="M373.4,89.1c1.7,0,3.1-1.4,3.1-3.1c0-1.7-1.4-3.1-3.1-3.1c-1.7,0-3.1,1.4-3.1,3.1
		C370.3,87.7,371.7,89.1,373.4,89.1L373.4,89.1z"/>
	<path class="st1" d="M380.4,91.6c1.3,0,2.3-1,2.3-2.3c0-1.3-1-2.3-2.3-2.3c-1.3,0-2.3,1-2.3,2.3C378.1,90.6,379.1,91.6,380.4,91.6
		L380.4,91.6z"/>
	<path class="st3" d="M84.4,15.1c1.4-0.5,2.9-0.9,4.6-0.9c1.7,0,3.7,0.3,5.3,0.9c1.6,0.6,2.8,1.5,3.8,2.7c1,1.2,1.7,2.7,2.3,4.4
		c0.6,1.7,1,3.6,1.2,5.1c0.2,1.5,0.3,2.7,0.3,3.9c-0.1,1.2-0.2,2.6-0.6,3.8c-0.3,1.2-0.8,2.3-1.2,3.4c-0.3,1.1-0.6,2.1-0.5,3.2
		c0,1.1,0.3,2.1,0.6,3.1c0.3,1,0.6,2,1,3c0.3,0.6,0.6,1.3,0.8,1.9c0.2-1.6,0.5-3,0.9-4.6c0.3-1.4,1-3,0.5-4.4
		c-0.2-0.5-0.4-1.2-0.6-2.1c-0.2-0.9-0.4-2-0.4-3.2c-0.1-1.2-0.1-2.4,0.1-3.9c0.2-1.5,0.6-3.3,1.2-5c0.7-1.7,1.6-3.4,3-5.1
		c1.3-1.7,3-3.3,4.5-4.6c1.5-1.2,2.9-2,4.2-2.4c1.3-0.4,2.6-0.4,3.6-0.4c1,0.1,1.7,0.3,2.9,0.9c1.2,0.6,2.8,1.7,4.6,3.2
		c1.8,1.5,3.6,3.3,4.9,4.7c1.2,1.4,1.8,2.5,2.2,3.5s0.6,2,0.6,3.2c0,1.2-0.3,2.5-1,4.1c-0.7,1.6-1.7,3.4-3.3,5.3s-3.7,3.9-5.5,5.2
		c-1.8,1.3-3.4,1.8-5.1,2.2s-3.7,0.4-5.2,0.4c-1.5,0-2.5-0.1-3.3-0.3c-0.8-0.1-1.4-0.2-2-0.3c-0.6,0-1.2,0.1-1.9,0.4
		c-0.6,0.3-1.2,0.8-1.9,1.5c-0.6,0.6-1.3,1.4-1.5,2.5c0,0.3,0,0.5,0,0.8c0,0.3,0.1,0.7,0.2,1.2c0.1,0.5,0.2,1.1,0.3,1.9
		c0.1,0.8,0.2,1.8,0.3,2.8c0.1,1,0.2,1.9,0.2,2.9c0,0.2,0,0.4,0,0.5l-0.1,0.2c-0.2,0.5-0.5,1-0.7,1.4c-0.2,0.4-0.4,0.9-0.6,1.4
		c-0.1,0.2-0.1,0.3-0.2,0.5c0-0.9-0.1-2.1-0.1-3.2c-0.1-1.3-0.2-2.5-0.2-3.5c-0.1-1.1-0.2-2-0.3-2.7c-0.1-0.6-0.2-0.9-0.3-1.1
		c-0.1-0.2-0.1-0.3-0.2-0.5c-0.1-0.1-0.1-0.2-0.2-0.2c-0.2-0.3-0.5-0.5-0.9-0.8c-0.6-0.3-1.3-0.3-1.9-0.4c-0.8-0.1-1.5-0.1-2.1,0.1
		c-0.6,0.2-1.1,0.5-1.4,0.8c-0.4,0.4-0.7,0.8-1.1,1.3s-1.1,1.2-2,2.1c-1,0.9-2.3,1.9-3.7,2.7c-1.3,0.8-2.7,1.3-4.6,1.5
		c-1.9,0.2-4.5,0.1-6.6-0.3c-2.1-0.4-3.9-1-5.2-1.6c-1.3-0.7-2.3-1.4-2.9-2.1c-0.7-0.7-1.1-1.5-1.4-2.4c-0.3-0.9-0.5-1.9-0.5-3.6
		c0-1.6,0.2-3.9,0.6-5.9c0.3-2,0.8-3.6,1.2-4.7c0.4-1.1,0.8-1.6,1.4-2.2c0.6-0.6,1.5-1.3,2.6-1.8c1.1-0.5,2.5-0.7,4.2-0.8
		c1.7-0.1,3.8,0.1,5.6,0.4c1.8,0.3,3.4,0.9,4.8,1.7c1.4,0.8,2.7,1.7,3.6,2.6c1,0.9,1.7,1.7,2.3,2.5c0.6,0.8,1.2,1.6,1.5,2.3
		c0.4,0.7,0.6,1.3,0.8,1.8c0.2,0.4,0.4,0.7,0.8,1.1c0.4,0.4,1.1,0.8,2.1,1.5c0.8,0.5,1.7,1.2,2.5,1.9c-0.5-1-1.1-2.4-1.8-3.6
		c-0.7-1.2-1.4-2.2-2-2.9c-1-1.2-1.7-1.6-2.8-3c-0.7-1-1.5-1.9-2.5-2.7c-1.2-1.1-2.5-2-3.9-2.8c-1.6-0.9-3.4-1.4-5.3-1.8
		c-1.9-0.4-4-0.5-5.9-0.4c-0.3,0-0.6,0-0.9,0c-0.1-0.2-0.1-0.3-0.2-0.5c-0.6-1.4-0.9-2.9-1.1-4.3c-0.2-1.4-0.3-2.6-0.2-3.7
		c0.1-1.1,0.4-2,0.9-3c0.5-1,1.1-2,2-2.8c0.8-0.9,1.8-1.6,3-2.3C81.6,16,82.9,15.5,84.4,15.1L84.4,15.1z M80.5,16.9
		c-0.4,0.2-0.9,0.7-1.5,1.3c-0.6,0.6-1.2,1.4-1.7,2c-0.5,0.7-0.8,1.2-1,1.8c-0.2,0.6-0.3,1.1-0.1,1.5c0.2,0.4,0.5,0.7,1.4,0.9
		c0.8,0.1,2.1,0.1,3.5-0.1c1.3-0.2,2.7-0.6,3.8-0.9c1.1-0.3,1.9-0.4,2.5-0.5c0.6-0.1,0.9-0.2,0.9-0.3c0-0.1-0.2-0.2-0.7-0.3
		c-0.5-0.1-1.2-0.1-2-0.1c-0.9,0-1.9,0-2.7,0c-0.8,0.1-1.5,0.1-2.3,0.3c-0.7,0.2-1.6,0.5-2.2,0.7c-0.6,0.2-1.1,0.3-1.4,0.3
		c-0.3,0-0.4-0.2-0.4-0.5c0-0.3,0.2-0.7,0.4-1.1c0.2-0.4,0.5-0.9,1-1.3c0.5-0.5,1.3-1,1.9-1.4c0.6-0.5,1.1-1,1.3-1.4
		c0.2-0.4,0.2-0.7,0.1-0.9C81.1,16.7,80.9,16.7,80.5,16.9L80.5,16.9z M93.7,14.9c0,0.1,0.3,0.3,0.3,0.5c0,0.2-0.2,0.4-0.6,0.7
		c-0.4,0.3-0.9,0.7-1.3,1.1c-0.4,0.4-0.7,0.9-1,1.4c-0.3,0.5-0.6,1.1-0.8,1.5c-0.2,0.4-0.4,0.7-0.6,1c-0.2,0.3-0.5,0.6-0.4,0.6
		c0.1,0,0.5-0.2,1-0.6c0.5-0.4,1-1,1.5-1.4c0.5-0.4,0.9-0.7,1.4-1.1c0.5-0.3,1-0.7,1.3-1.1c0.4-0.4,0.6-0.8,0.6-1.1
		c0-0.3-0.1-0.7-0.3-0.9c-0.2-0.2-0.4-0.4-0.7-0.5C94,15,93.7,14.9,93.7,14.9L93.7,14.9z M133.9,27.6c-0.1-0.2-0.2,0-0.6,0.2
		c-0.4,0.2-1,0.4-1.7,0.5c-0.7,0.1-1.5,0-2.1,0c-0.6-0.1-0.9-0.2-1.1-0.2c-0.3,0-0.5,0-0.4,0.2c0.1,0.1,0.6,0.4,1.3,0.7
		c0.7,0.3,1.7,0.6,2.5,0.9c0.7,0.2,1.2,0.3,1.5,0.2c0.3-0.1,0.5-0.5,0.6-1C134,28.5,134,27.8,133.9,27.6L133.9,27.6z M120.6,14.5
		c-0.5-0.3-1-0.3-1.5-0.2c-0.4,0.1-0.7,0.5-0.9,1.1c-0.1,0.6-0.1,1.5,0.5,2.6c0.6,1.1,1.7,2.5,2.8,3.9c1.1,1.3,2.3,2.6,3.2,3.6
		c0.9,1,1.5,1.8,1.9,2.1c0.4,0.4,0.6,0.4,0.5,0.1c0-0.3-0.3-0.8-0.6-1.5c-0.4-0.7-0.8-1.6-1.4-2.5s-1.2-2-1.9-2.9
		c-0.7-0.9-1.4-1.7-2-2.3c-0.6-0.7-0.9-1.2-1-1.6c-0.1-0.4,0-0.7,0.3-0.9c0.3-0.1,0.9-0.1,1-0.4C121.6,15.4,121.1,14.8,120.6,14.5
		L120.6,14.5z M90.7,25.1c0.5,0.5,1.3,2,2.3,4c1,2,2.2,4.5,3,6.3c0.8,1.8,1.2,3,1.6,3.9c0.4,0.9,0.7,1.7,0.8,2.2
		c0.2,0.5,0.2,0.8,0,0.6c-0.2-0.2-0.5-0.9-1.1-1.8c-0.5-0.8-1.2-1.8-1.9-3c-0.7-1.2-1.4-2.7-2.1-4.2c-0.7-1.4-1.4-2.8-2-4.1
		c-0.6-1.2-1-2.3-1.2-3.1C90.1,25.1,90.2,24.6,90.7,25.1L90.7,25.1z M125.7,29.8c0.2,0.3,0.1,1.1-0.3,2.1c-0.4,1-1.1,2-2.2,3.3
		c-1.1,1.3-2.5,2.8-4.2,4.3c-1.7,1.6-3.7,3.2-5,4.3c-1.3,1.1-2.1,1.5-2.5,1.7c-0.5,0.2-0.7,0.1-0.4-0.3c0.2-0.4,0.9-1,1.8-1.9
		c0.9-0.9,2.2-2.1,3.2-3.1c1-1,1.7-2,2.3-2.8c0.6-0.8,1-1.5,1.3-2.3c0.4-0.7,0.7-1.5,1.2-2.2c0.5-0.7,1.2-1.3,1.8-1.7
		c0.6-0.5,1.1-0.8,1.7-1.1C124.9,29.8,125.4,29.5,125.7,29.8L125.7,29.8z M69.3,38.6c0.2-0.5,0.5-0.8,0.9-1c0.4-0.1,0.7-0.1,1.2,0.2
		c0.4,0.3,0.9,1,1.2,2c0.3,1.1,0.3,2.6,0.4,4.1c0,1.5-0.1,3-0.1,4.2c0,1.2,0,2,0,2.5c0,0.5-0.2,0.6-0.3,0.4
		c-0.1-0.2-0.3-0.7-0.4-1.3s-0.4-1.5-0.5-2.5c-0.2-0.9-0.3-2-0.4-2.9c-0.1-1,0-1.9,0-2.7c0-0.7-0.1-1.3-0.2-1.6
		c-0.2-0.3-0.4-0.5-0.7-0.4c-0.3,0.1-0.7,0.5-0.8,0.3C69.1,39.7,69.1,39,69.3,38.6L69.3,38.6z M68.1,54.7c-0.1-0.2,0.2-0.1,0.5-0.2
		c0.4-0.1,0.9-0.3,1.4-0.6c0.5-0.4,1-0.9,1.3-1.3c0.3-0.4,0.5-0.6,0.6-0.8c0.2-0.2,0.3-0.3,0.3-0.1c0,0.2-0.1,0.6-0.5,1.2
		c-0.3,0.6-0.8,1.4-1.2,2c-0.4,0.6-0.6,0.9-0.9,1c-0.3,0.1-0.5,0-0.9-0.3C68.6,55.4,68.2,54.9,68.1,54.7L68.1,54.7z M74.8,51.4
		c0,0.3,0.6,0.8,1.4,1.2s1.9,0.7,3.3,1c1.4,0.2,3.2,0.4,5.2,0.5c2,0.1,4.2,0,5.7,0c1.5-0.1,2.2-0.2,2.7-0.3c0.4-0.1,0.5-0.3,0.1-0.4
		c-0.4-0.1-1.2-0.2-2.3-0.3c-1.1-0.1-2.6-0.1-3.9-0.3c-1.2-0.1-2.3-0.3-3.1-0.5c-0.8-0.2-1.5-0.5-2.2-0.7c-0.7-0.3-1.3-0.6-2-0.8
		c-0.7-0.2-1.5-0.2-2.2-0.1c-0.7,0-1.2,0.1-1.7,0.3C75.3,51,74.8,51.1,74.8,51.4L74.8,51.4z"/>
</g>
</svg>
